<svg width="100" height="100" viewBox="0 0 100 100" fill="none" xmlns="http://www.w3.org/2000/svg">
<g clip-path="url(#clip0_403_2)">
<rect width="100" height="100" rx="50" fill="#030711"/>
<g clip-path="url(#clip1_403_2)">
<rect opacity="0.621057" x="4" y="24" width="5" height="5" fill="#F5BDE6"/>
<rect opacity="0.852238" x="93" y="3" width="5" height="5" fill="#F5BDE6"/>
<rect opacity="0.216077" x="42" y="88" width="5" height="5" fill="#F5BDE6"/>
<rect opacity="0.530837" x="99" y="37" width="5" height="5" fill="#F5BDE6"/>
<rect opacity="0.961511" x="52" y="53" width="5" height="5" fill="#F5BDE6"/>
<rect opacity="0.579058" x="62" y="81" width="5" height="5" fill="#F5BDE6"/>
<rect opacity="0.473811" x="52" y="88" width="5" height="5" fill="#F5BDE6"/>
<rect opacity="0.840787" x="83" y="73" width="5" height="5" fill="#F5BDE6"/>
<rect opacity="0.598049" x="45" y="73" width="5" height="5" fill="#F5BDE6"/>
<rect opacity="0.445302" x="77" y="28" width="5" height="5" fill="#F5BDE6"/>
<rect opacity="0.816334" x="28" y="87" width="5" height="5" fill="#F5BDE6"/>
<rect opacity="0.733828" x="27" y="50" width="5" height="5" fill="#F5BDE6"/>
<rect opacity="0.608854" x="38" y="16" width="5" height="5" fill="#F5BDE6"/>
<rect opacity="0.329103" x="10" y="8" width="5" height="5" fill="#F5BDE6"/>
<rect opacity="0.533862" x="29" y="15" width="5" height="5" fill="#F5BDE6"/>
<rect opacity="0.443625" x="95" y="22" width="5" height="5" fill="#F5BDE6"/>
<rect opacity="0.479166" x="83" y="15" width="5" height="5" fill="#F5BDE6"/>
<rect opacity="0.32734" x="46" y="81" width="5" height="5" fill="#F5BDE6"/>
<rect opacity="0.650886" x="27" y="60" width="5" height="5" fill="#F5BDE6"/>
<rect opacity="0.845287" x="46" y="97" width="5" height="5" fill="#F5BDE6"/>
<rect opacity="0.606873" x="36" y="41" width="5" height="5" fill="#F5BDE6"/>
<rect opacity="0.221477" x="36" y="19" width="5" height="5" fill="#F5BDE6"/>
<rect opacity="0.547727" x="2" y="56" width="5" height="5" fill="#F5BDE6"/>
<rect opacity="0.292124" x="83" y="73" width="5" height="5" fill="#F5BDE6"/>
<rect opacity="0.489891" x="65" y="37" width="5" height="5" fill="#F5BDE6"/>
<rect opacity="0.217084" x="30" y="27" width="5" height="5" fill="#F5BDE6"/>
<rect opacity="0.490361" x="81" y="65" width="5" height="5" fill="#F5BDE6"/>
<rect opacity="0.293386" x="10" y="88" width="5" height="5" fill="#F5BDE6"/>
<rect opacity="0.640141" x="78" y="96" width="5" height="5" fill="#F5BDE6"/>
<rect opacity="0.857758" x="79" y="93" width="5" height="5" fill="#F5BDE6"/>
<rect opacity="0.333002" x="2" y="10" width="5" height="5" fill="#F5BDE6"/>
<rect opacity="0.279611" x="51" y="9" width="5" height="5" fill="#F5BDE6"/>
<rect opacity="0.292151" x="76" y="7" width="5" height="5" fill="#F5BDE6"/>
<rect opacity="0.513016" x="1" y="13" width="5" height="5" fill="#F5BDE6"/>
<rect opacity="0.254339" x="34" y="17" width="5" height="5" fill="#F5BDE6"/>
<rect opacity="0.284641" x="4" y="59" width="5" height="5" fill="#F5BDE6"/>
<rect opacity="0.579927" x="89" y="62" width="5" height="5" fill="#F5BDE6"/>
<rect opacity="0.854369" x="11" y="1" width="5" height="5" fill="#F5BDE6"/>
<rect opacity="0.703811" x="91" y="86" width="5" height="5" fill="#F5BDE6"/>
<rect opacity="0.739932" x="67" y="44" width="5" height="5" fill="#F5BDE6"/>
<rect opacity="0.493849" x="21" y="6" width="5" height="5" fill="#F5BDE6"/>
<rect opacity="0.88514" x="47" y="38" width="5" height="5" fill="#F5BDE6"/>
<rect opacity="0.586199" x="99" y="19" width="5" height="5" fill="#F5BDE6"/>
<rect opacity="0.766144" x="81" y="99" width="5" height="5" fill="#F5BDE6"/>
<rect opacity="0.717553" x="68" y="93" width="5" height="5" fill="#F5BDE6"/>
<rect opacity="0.736111" x="65" y="42" width="5" height="5" fill="#F5BDE6"/>
<rect opacity="0.345391" x="26" y="45" width="5" height="5" fill="#F5BDE6"/>
<rect opacity="0.542467" x="58" y="51" width="5" height="5" fill="#F5BDE6"/>
<rect opacity="0.571617" x="49" y="54" width="5" height="5" fill="#F5BDE6"/>
<rect opacity="0.975175" x="74" y="81" width="5" height="5" fill="#F5BDE6"/>
<rect opacity="0.725864" x="60" y="80" width="5" height="5" fill="#F5BDE6"/>
<rect opacity="0.573309" x="3" y="50" width="5" height="5" fill="#F5BDE6"/>
<rect opacity="0.44939" x="14" y="96" width="5" height="5" fill="#F5BDE6"/>
<rect opacity="0.444575" x="84" y="42" width="5" height="5" fill="#F5BDE6"/>
<rect opacity="0.553029" x="58" y="10" width="5" height="5" fill="#F5BDE6"/>
<rect opacity="0.637627" y="27" width="5" height="5" fill="#F5BDE6"/>
<rect opacity="0.383483" x="19" y="36" width="5" height="5" fill="#F5BDE6"/>
<rect opacity="0.436302" x="59" y="33" width="5" height="5" fill="#F5BDE6"/>
<rect opacity="0.786272" x="9" y="62" width="5" height="5" fill="#F5BDE6"/>
<rect opacity="0.720444" x="46" y="27" width="5" height="5" fill="#F5BDE6"/>
<rect opacity="0.524445" x="92" y="19" width="5" height="5" fill="#F5BDE6"/>
<rect opacity="0.409966" x="90" y="62" width="5" height="5" fill="#F5BDE6"/>
<rect opacity="0.956206" x="66" y="56" width="5" height="5" fill="#F5BDE6"/>
<rect opacity="0.678512" x="82" y="65" width="5" height="5" fill="#F5BDE6"/>
<rect opacity="0.79066" x="80" y="17" width="5" height="5" fill="#F5BDE6"/>
<rect opacity="0.602691" x="22" y="21" width="5" height="5" fill="#F5BDE6"/>
<rect opacity="0.848654" x="79" y="65" width="5" height="5" fill="#F5BDE6"/>
<rect opacity="0.956758" x="31" y="78" width="5" height="5" fill="#F5BDE6"/>
<rect opacity="0.328654" x="80" y="86" width="5" height="5" fill="#F5BDE6"/>
<rect opacity="0.565304" x="20" y="62" width="5" height="5" fill="#F5BDE6"/>
<rect opacity="0.757276" x="20" y="79" width="5" height="5" fill="#F5BDE6"/>
<rect opacity="0.510643" x="30" y="19" width="5" height="5" fill="#F5BDE6"/>
<rect opacity="0.246408" x="93" y="64" width="5" height="5" fill="#F5BDE6"/>
<rect opacity="0.548199" x="4" y="85" width="5" height="5" fill="#F5BDE6"/>
<rect opacity="0.4696" x="30" y="80" width="5" height="5" fill="#F5BDE6"/>
<rect opacity="0.755137" x="54" y="36" width="5" height="5" fill="#F5BDE6"/>
<rect opacity="0.40579" x="98" y="9" width="5" height="5" fill="#F5BDE6"/>
<rect opacity="0.629922" x="40" y="23" width="5" height="5" fill="#F5BDE6"/>
<rect opacity="0.440435" x="43" y="75" width="5" height="5" fill="#F5BDE6"/>
<rect opacity="0.793438" x="72" y="30" width="5" height="5" fill="#F5BDE6"/>
<rect opacity="0.470026" x="86" y="77" width="5" height="5" fill="#F5BDE6"/>
<rect opacity="0.538141" x="47" y="62" width="5" height="5" fill="#F5BDE6"/>
<rect opacity="0.512506" x="55" y="76" width="5" height="5" fill="#F5BDE6"/>
<rect opacity="0.912024" x="87" y="10" width="5" height="5" fill="#F5BDE6"/>
<g filter="url(#filter0_dddddd_403_2)">
<path d="M50 0C50 27.6142 33.2107 50 12.5 50C33.2107 50 50 72.3858 50 100C50 72.3858 66.7893 50 87.5 50C66.7893 50 50 27.6142 50 0Z" fill="#F5BDE6"/>
</g>
</g>
</g>
<defs>
<filter id="filter0_dddddd_403_2" x="-7.5" y="-20" width="115" height="140" filterUnits="userSpaceOnUse" color-interpolation-filters="sRGB">
<feFlood flood-opacity="0" result="BackgroundImageFix"/>
<feColorMatrix in="SourceAlpha" type="matrix" values="0 0 0 0 0 0 0 0 0 0 0 0 0 0 0 0 0 0 127 0" result="hardAlpha"/>
<feOffset/>
<feGaussianBlur stdDeviation="10"/>
<feComposite in2="hardAlpha" operator="out"/>
<feColorMatrix type="matrix" values="0 0 0 0 0 0 0 0 0 0 0 0 0 0 0 0 0 0 1 0"/>
<feBlend mode="normal" in2="BackgroundImageFix" result="effect1_dropShadow_403_2"/>
<feColorMatrix in="SourceAlpha" type="matrix" values="0 0 0 0 0 0 0 0 0 0 0 0 0 0 0 0 0 0 127 0" result="hardAlpha"/>
<feOffset/>
<feGaussianBlur stdDeviation="10"/>
<feComposite in2="hardAlpha" operator="out"/>
<feColorMatrix type="matrix" values="0 0 0 0 0 0 0 0 0 0 0 0 0 0 0 0 0 0 1 0"/>
<feBlend mode="normal" in2="effect1_dropShadow_403_2" result="effect2_dropShadow_403_2"/>
<feColorMatrix in="SourceAlpha" type="matrix" values="0 0 0 0 0 0 0 0 0 0 0 0 0 0 0 0 0 0 127 0" result="hardAlpha"/>
<feOffset/>
<feGaussianBlur stdDeviation="10"/>
<feComposite in2="hardAlpha" operator="out"/>
<feColorMatrix type="matrix" values="0 0 0 0 0 0 0 0 0 0 0 0 0 0 0 0 0 0 1 0"/>
<feBlend mode="normal" in2="effect2_dropShadow_403_2" result="effect3_dropShadow_403_2"/>
<feColorMatrix in="SourceAlpha" type="matrix" values="0 0 0 0 0 0 0 0 0 0 0 0 0 0 0 0 0 0 127 0" result="hardAlpha"/>
<feOffset/>
<feGaussianBlur stdDeviation="10"/>
<feComposite in2="hardAlpha" operator="out"/>
<feColorMatrix type="matrix" values="0 0 0 0 0 0 0 0 0 0 0 0 0 0 0 0 0 0 1 0"/>
<feBlend mode="normal" in2="effect3_dropShadow_403_2" result="effect4_dropShadow_403_2"/>
<feColorMatrix in="SourceAlpha" type="matrix" values="0 0 0 0 0 0 0 0 0 0 0 0 0 0 0 0 0 0 127 0" result="hardAlpha"/>
<feOffset/>
<feGaussianBlur stdDeviation="10"/>
<feComposite in2="hardAlpha" operator="out"/>
<feColorMatrix type="matrix" values="0 0 0 0 0 0 0 0 0 0 0 0 0 0 0 0 0 0 1 0"/>
<feBlend mode="normal" in2="effect4_dropShadow_403_2" result="effect5_dropShadow_403_2"/>
<feColorMatrix in="SourceAlpha" type="matrix" values="0 0 0 0 0 0 0 0 0 0 0 0 0 0 0 0 0 0 127 0" result="hardAlpha"/>
<feOffset/>
<feGaussianBlur stdDeviation="7.5"/>
<feComposite in2="hardAlpha" operator="out"/>
<feColorMatrix type="matrix" values="0 0 0 0 0.960784 0 0 0 0 0.741176 0 0 0 0 0.901961 0 0 0 1 0"/>
<feBlend mode="normal" in2="effect5_dropShadow_403_2" result="effect6_dropShadow_403_2"/>
<feBlend mode="normal" in="SourceGraphic" in2="effect6_dropShadow_403_2" result="shape"/>
</filter>
<clipPath id="clip0_403_2">
<rect width="100" height="100" rx="50" fill="white"/>
</clipPath>
<clipPath id="clip1_403_2">
<rect width="100" height="100" fill="white"/>
</clipPath>
</defs>
</svg>
